<?xml version="1.0" encoding="UTF-8" standalone="no"?>
<svg
   xmlns:dc="http://purl.org/dc/elements/1.1/"
   xmlns:cc="http://creativecommons.org/ns#"
   xmlns:rdf="http://www.w3.org/1999/02/22-rdf-syntax-ns#"
   xmlns:svg="http://www.w3.org/2000/svg"
   xmlns="http://www.w3.org/2000/svg"
   xmlns:sodipodi="http://sodipodi.sourceforge.net/DTD/sodipodi-0.dtd"
   xmlns:inkscape="http://www.inkscape.org/namespaces/inkscape"
   height="24"
   viewBox="0 0 24 24"
   width="24"
   version="1.1"
   id="svg6"
   sodipodi:docname="favicon.svg"
   inkscape:version="0.92.4 (unknown)"
   inkscape:export-filename="/home/mbergeron/ntro.ca/racine/themes/hugo-book/static/favicon.png"
   inkscape:export-xdpi="96"
   inkscape:export-ydpi="96">
  <metadata
     id="metadata12">
    <rdf:RDF>
      <cc:Work
         rdf:about="">
        <dc:format>image/svg+xml</dc:format>
        <dc:type
           rdf:resource="http://purl.org/dc/dcmitype/StillImage" />
      </cc:Work>
    </rdf:RDF>
  </metadata>
  <defs
     id="defs10" />
  <sodipodi:namedview
     pagecolor="#ffffff"
     bordercolor="#666666"
     borderopacity="1"
     objecttolerance="10"
     gridtolerance="10"
     guidetolerance="10"
     inkscape:pageopacity="0"
     inkscape:pageshadow="2"
     inkscape:window-width="1914"
     inkscape:window-height="1074"
     id="namedview8"
     showgrid="false"
     inkscape:zoom="8.80694"
     inkscape:cx="40.054018"
     inkscape:cy="13.264716"
     inkscape:window-x="0"
     inkscape:window-y="0"
     inkscape:window-maximized="0"
     inkscape:current-layer="svg6"
     inkscape:snap-nodes="false"
     inkscape:snap-global="false" />
  <path
     d="M0 0h24v24H0V0z"
     fill="none"
     id="path2" />
  <path
     style="opacity:1;fill:#000000;fill-opacity:1;stroke:#000000;stroke-opacity:1"
     id="path4601"
     d="m 3.0614902,19.659045 c 0.722919,-0.943834 1.366258,-1.944999 2.039416,-2.924253 1.233275,-1.739873 2.363664,-3.547823 3.445356,-5.384773 0.736565,-1.284599 1.417152,-2.602595 1.9906118,-3.968221 0.135093,-0.3822629 0.31721,-0.7664939 0.362874,-1.1746459 0.482809,-0.227958 0.950114,-0.492164 1.448428,-0.683874 0.03911,-0.01504 0.0028,0.08378 0.0025,0.125677 -4.25e-4,0.05909 -0.0044,0.118132 -0.0047,0.177227 -0.0019,0.351365 0.02967,0.697961 0.06123,1.047651 0.143817,1.2848319 0.387786,2.5567989 0.605192,3.8308239 0.21037,1.324712 0.483885,2.639515 0.818596,3.938318 0.101568,0.465361 0.256291,0.910416 0.429913,1.352079 0.07459,0.203005 0.196289,0.381727 0.271068,0.584214 0.08084,0.262568 0.116849,0.53469 0.146551,0.806863 0.01408,0.257379 0.03659,0.511526 0.07947,0.76565 0.02109,0.108898 0.02515,0.220257 0.05148,0.328248 0.0062,0.02555 0.0077,0.05445 0.0238,0.07521 0.0071,0.0092 0.01888,-0.03878 0.0084,-0.03376 -0.451246,0.21703 -0.894614,0.450074 -1.341921,0.675112 0.04779,-0.05426 0.100385,-0.104641 0.14337,-0.162782 0.08041,-0.108768 0.458118,-0.704922 0.488217,-0.753982 0.463605,-0.75566 0.8738,-1.536723 1.284448,-2.32199 1.092227,-2.124991 1.956348,-4.356726 2.697744,-6.62513 0.340278,-1.091116 0.65153,-2.1923729 0.899016,-3.3084959 0.04639,-0.196906 0.09528,-0.393172 0.141188,-0.590187 0,0 1.432768,-0.687322 1.432768,-0.687322 v 0 c -0.05147,0.201906 -0.108137,0.402268 -0.167353,0.602061 -0.293262,1.137705 -0.644519,2.2599239 -1.01056,3.3760119 -0.777446,2.262672 -1.649624,4.495502 -2.697691,6.648008 -0.537941,1.095067 -1.09709,2.17762 -1.726956,3.223156 -1.358025,0.730987 -1.504115,1.316369 -1.637663,0.304597 -0.04212,-0.258591 -0.07534,-0.515079 -0.07802,-0.777778 -0.02442,-0.260257 -0.06146,-0.517425 -0.13841,-0.767913 -0.06851,-0.203744 -0.193175,-0.381786 -0.261616,-0.586259 -0.16231,-0.457838 -0.304574,-0.917521 -0.384456,-1.398944 -0.28994,-1.317636 -0.547248,-2.642803 -0.772968,-3.972936 -0.230816,-1.268189 -0.488216,-2.532758 -0.666764,-3.809652 -0.04393,-0.34582 -0.09282,-0.6921059 -0.112601,-1.0404639 -0.0032,-0.05615 -0.0027,-0.112452 -0.0041,-0.168679 -7.48e-4,-0.03183 -0.02951,-0.0792 -0.0022,-0.09549 0.464542,-0.276725 0.956229,-0.505103 1.434343,-0.757655 -0.05989,0.09105 -0.07447,0.229969 -0.103884,0.330996 -0.0883,0.303234 -0.201272,0.598155 -0.32793,0.887403 -0.615388,1.3842829 -1.33224,2.7205409 -2.0886818,4.0325529 -1.077136,1.829738 -2.194109,3.635973 -3.408182,5.378787 -0.641709,0.949073 -1.246391,1.922423 -1.901466,2.862246 0,0 -1.46798,0.64229 -1.46798,0.64229 z"
     inkscape:connector-curvature="0" />
</svg>
